🚀 Processing 1 URL(s) through Cloudflare WARP
   Quality: 720p
   Subtitles: en (English)
   Burn subtitles: True
   Caching enabled: Yes

📥 URL #1: https://www.youtube.com/watch?v=PPJ6NJkmDAo
   [Strategy 1] Cloudflare WARP (video only) ...
   ✅ WARP download succeeded
   📦 Video: I_hacked_MKBHD_s_locked_phone [PPJ6NJkmDAo].mp4 (69.3 MB)
   📝 Attempting subtitle download ...
   ✅ Subtitle downloaded: I_hacked_MKBHD_s_locked_phone [PPJ6NJkmDAo].en.srt
   🔥 Burning subtitles into video ...
   ⚠️ Burning failed: ffmpeg version 6.1.1-3ubuntu5 Copyright (c) 2000-2023 the FFmpeg developers
  built with gcc 13 (Ubuntu 13.2.0-23ubuntu3)
  configuration: --prefix=/usr --extra-version=3ubuntu5 --toolchain=hardened --libdir=/usr/lib/x86_64-linux-gnu --incdir=/usr/include/x86_64-linux-gnu --arch=amd64 --enable-gpl --disable-stripping --disable-omx --enable-gnutls --enable-libaom --enable-libass --enable-libbs2b --enable-libcaca --enable-libcdio --enable-libcodec2 --enable-libdav1d --enable-libflite --enable-libfontconfig --enable-libfreetype --enable-libfribidi --enable-libglslang --enable-libgme --enable-libgsm --enable-libharfbuzz --enable-libmp3lame --enable-libmysofa --enable-libopenjpeg --enable-libopenmpt --enable-libopus --enable-librubberband --enable-libshine --enable-libsnappy --enable-libsoxr --enable-libspeex --enable-libtheora --enable-libtwolame --enable-libvidstab --enable-libvorbis --enable-libvpx --enable-libwebp --enable-libx265 --enable-libxml2 --enable-libxvid --enable-libzimg --enable-openal --enable-opencl --enable-opengl --disable-sndio --enable-libvpl --disable-libmfx --enable-libdc1394 --enable-libdrm --enable-libiec61883 --enable-chromaprint --enable-frei0r --enable-ladspa --enable-libbluray --enable-libjack --enable-libpulse --enable-librabbitmq --enable-librist --enable-libsrt --enable-libssh --enable-libsvtav1 --enable-libx264 --enable-libzmq --enable-libzvbi --enable-lv2 --enable-sdl2 --enable-libplacebo --enable-librav1e --enable-pocketsphinx --enable-librsvg --enable-libjxl --enable-shared
  libavutil      58. 29.100 / 58. 29.100
  libavcodec     60. 31.102 / 60. 31.102
  libavformat    60. 16.100 / 60. 16.100
  libavdevice    60.  3.100 / 60.  3.100
  libavfilter     9. 12.100 /  9. 12.100
  libswscale      7.  5.100 /  7.  5.100
  libswresample   4. 12.100 /  4. 12.100
  libpostproc    57.  3.100 / 57.  3.100
[libdav1d @ 0x5564359afd00] libdav1d 1.4.1
Input #0, mov,mp4,m4a,3gp,3g2,mj2, from 'I_hacked_MKBHD_s_locked_phone [PPJ6NJkmDAo].mp4':
  Metadata:
    major_brand     : isom
    minor_version   : 512
    compatible_brands: isomav01iso2mp41
    encoder         : Lavf60.16.100
  Duration: 00:25:43.58, start: 0.000000, bitrate: 376 kb/s
  Stream #0:0[0x1](und): Video: av1 (Main) (av01 / 0x31307661), yuv420p(tv, bt709), 1280x720, 243 kb/s, 23.98 fps, 23.98 tbr, 24k tbn (default)
    Metadata:
      handler_name    : ISO Media file produced by Google Inc.
      vendor_id       : [0][0][0][0]
  Stream #0:1[0x2](eng): Audio: opus (Opus / 0x7375704F), 48000 Hz, stereo, fltp, 128 kb/s (default)
    Metadata:
      handler_name    : SoundHandler
      vendor_id       : [0][0][0][0]
[AVFilterGraph @ 0x556435a510c0] Trailing garbage after a filter: .en.srt
[AVFilterGraph @ 0x556435a510c0] Error parsing filterchain 'subtitles=I_hacked_MKBHD_s_locked_phone [PPJ6NJkmDAo].en.srt' around: .en.srt
[vost#0:0/libx264 @ 0x556435a59ac0] Error initializing a simple filtergraph
Error opening output file burned_I_hacked_MKBHD_s_locked_phone [PPJ6NJkmDAo].mp4.
Error opening output files: Invalid argument
   ✂️ Splitting into 20 MB chunks ...
      ⬆️ Uploading chunk 1: I_hacked_MKBHD_s_locked_phone [PPJ6NJkmDAo].mp4.part0000 (20.0 MB)
      ⬆️ Uploading chunk 2: I_hacked_MKBHD_s_locked_phone [PPJ6NJkmDAo].mp4.part0001 (20.0 MB)
      ⬆️ Uploading chunk 3: I_hacked_MKBHD_s_locked_phone [PPJ6NJkmDAo].mp4.part0002 (20.0 MB)
      ⬆️ Uploading chunk 4: I_hacked_MKBHD_s_locked_phone [PPJ6NJkmDAo].mp4.part0003 (9.3 MB)
   ✅ Uploaded 4 chunks

📄 Creating reassemble.bat ...
   ⬆️ Uploading reassemble.bat ...
   ✅ reassemble.bat uploaded.

📊 Summary
   Total URLs: 1
   Successfully uploaded: 1

✅ Uploaded 1 video(s) successfully.
